<svg xmlns="http://www.w3.org/2000/svg" viewBox="0 0 64 64" role="img" aria-label="ODECO">
  <defs>
    <linearGradient id="bg" x1="50%" y1="0%" x2="50%" y2="100%">
      <stop offset="0%" stop-color="#5eb8d8"/>
      <stop offset="100%" stop-color="#1a5f82"/>
    </linearGradient>
  </defs>
  <rect x="11" y="6" width="42" height="52" rx="12" fill="url(#bg)"/>
  <path fill="#faf7f0" d="M22 16h12c.6 0 1 .4 1 1v30c0 .6-.4 1-1 1H22c-.6 0-1-.4-1-1V17c0-.6.4-1 1-1z"/>
  <path fill="#faf7f0" d="M34 17h10c.6 0 1 .4 1 1v28c0 .6-.4 1-1 1H34V17z"/>
  <rect x="31" y="30" width="2.2" height="6" rx="1.1" fill="#faf7f0"/>
</svg>
